# xmcd
#
# Track frame offsets: 
#        150
#        14910
#        29882
#        46042
#        59635
#        75670
#        91935
#        109867
#        125422
#        141510
#        157322
#        174217
#        188615
#        210655
#        223362
#        237095
#        251562
#        269417
#        290815
#        307297
#
# Disc length: 4339 seconds
#
# Revision: 1
# Processed by: cddbd v1.5.2PL0 Copyright (c) Steve Scherf et al.
# Submitted via: ExactAudioCopy v1.0b3
#
DISCID=3e10f114
DTITLE=Alabama - The American Farewell Tour
DYEAR=2003
DGENRE=Country
TTITLE0=When It All Goes South
TTITLE1=Love In The First Degree
TTITLE2=The Closer You Get
TTITLE3=High Cotton
TTITLE4=Sad Lookin' Moon
TTITLE5=Feels So Right
TTITLE6=Lady Down On Love
TTITLE7=Down Home
TTITLE8=Christmas In Dixie
TTITLE9=Give Me One More Shot
TTITLE10=Roll On (Eighteen Wheeler)
TTITLE11=Song Of The South
TTITLE12=The Fans
TTITLE13=I'm In A Hurry (And Don't Know Why)
TTITLE14=Tennessee River
TTITLE15=Old Flame
TTITLE16=Dixieland Delight
TTITLE17=Dancin', Shaggin' On The Boulevard
TTITLE18=Mountain Music
TTITLE19=My Home's In Alabama
EXTD=
EXTT0=
EXTT1=
EXTT2=
EXTT3=
EXTT4=
EXTT5=
EXTT6=
EXTT7=
EXTT8=
EXTT9=
EXTT10=
EXTT11=
EXTT12=
EXTT13=
EXTT14=
EXTT15=
EXTT16=
EXTT17=
EXTT18=
EXTT19=
PLAYORDER=
